# xmcd CD database file
#
# Track frame offsets:
#	150
#	26250
#	48000
#	70875
#	90675
#	112350
#	135075
#	156600
#	176100
#	198825
#
# Disc length: 2925 seconds
#
# Revision: 1
# Processed by: cddbd v1.5.1PL0 Copyright (c) Steve Scherf et al.
# Submitted via: freeDBTagger 0.5
#
DISCID=830b6b0a
DTITLE=KADOMATSU.T PRODUCE - VOCALAND2-Male,Female&Mellow
DYEAR=1997
DGENRE=rock
TTITLE0=Give it up
TTITLE1=WE ALL NEED LOVE
TTITLE2=Can you change my world
TTITLE3=Don't Say"I LOVE YOU"
TTITLE4=Over The Lonely Night
TTITLE5=Together
TTITLE6=Take me your own way
TTITLE7=Voices From December-12月の声-
TTITLE8=Never Gonna Miss You
TTITLE9=HEART TO HEART
EXTD=
EXTT0=
EXTT1=
EXTT2=
EXTT3=
EXTT4=
EXTT5=
EXTT6=
EXTT7=
EXTT8=
EXTT9=
PLAYORDER=
